# xmcd CD database file
#
# Track frame offsets:
#	150
#	27795
#	54307
#	85569
#	109160
#	124368
#	143308
#	165450
#	193973
#	213782
#	240809
#	263647
#	268435
#	291280
#
# Disc length: 4346 seconds
#
# Revision: 0
# Processed by: cddbd v1.5.2PL0 Copyright (c) Steve Scherf et al.
# Submitted via: CDex 1.51
#
DISCID=bd10f80e
DTITLE=Kori Kameda - Indeed
DYEAR=2009
DGENRE=Blues
TTITLE0=This One
TTITLE1=Diamonds and Goldrings
TTITLE2=And We
TTITLE3=Always Isn't Tomorrow
TTITLE4=All Those Little Pieces
TTITLE5=Below These Lines
TTITLE6=For Cast For Shadow
TTITLE7=Clown
TTITLE8=The Bottle
TTITLE9=Memories Of The Weekend
TTITLE10=Tic Tic Boom
TTITLE11=Notes "N" Beats
TTITLE12=Good News
TTITLE13=Just A While
EXTD=YEAR: 2009
EXTT0=
EXTT1=
EXTT2=
EXTT3=
EXTT4=
EXTT5=
EXTT6=
EXTT7=
EXTT8=
EXTT9=
EXTT10=
EXTT11=
EXTT12=
EXTT13=
PLAYORDER=
